<svg width="20" height="20" viewBox="0 0 20 20" fill="none" xmlns="http://www.w3.org/2000/svg">
<path d="M16.025 12.717L13.908 12.475C13.6592 12.4458 13.4071 12.4734 13.1705 12.5557C12.9339 12.638 12.719 12.7728 12.542 12.95L11.008 14.483C8.6427 13.2799 6.72012 11.3573 5.517 8.99198L7.058 7.44998C7.417 7.09198 7.592 6.59198 7.533 6.08298L7.292 3.98298C7.24464 3.57639 7.04942 3.20141 6.7435 2.92943C6.43759 2.65744 6.04234 2.50744 5.633 2.50798H4.192C3.25 2.50798 2.467 3.29198 2.525 4.23298C2.967 11.35 8.658 17.033 15.767 17.475C16.708 17.533 17.492 16.75 17.492 15.808V14.367C17.4941 13.9594 17.3454 13.5655 17.0746 13.2609C16.8038 12.9563 16.43 12.7626 16.025 12.717Z" fill="url(#paint0_linear_26_138)"/>
<defs>
<linearGradient id="paint0_linear_26_138" x1="10.007" y1="2.50798" x2="10.007" y2="17.478" gradientUnits="userSpaceOnUse">
<stop stop-color="#3864FF"/>
<stop offset="1" stop-color="#0038FF"/>
</linearGradient>
</defs>
</svg>
