<svg width="24" height="24" viewBox="0 0 24 24" fill="none" xmlns="http://www.w3.org/2000/svg">
<path d="M12.1355 16.6452C13.3855 16.6452 14.448 16.2077 15.323 15.3327C16.198 14.4577 16.6355 13.3952 16.6355 12.1452C16.6355 10.8952 16.198 9.83267 15.323 8.95767C14.448 8.08267 13.3855 7.64517 12.1355 7.64517C10.8855 7.64517 9.823 8.08267 8.948 8.95767C8.073 9.83267 7.6355 10.8952 7.6355 12.1452C7.6355 13.3952 8.073 14.4577 8.948 15.3327C9.823 16.2077 10.8855 16.6452 12.1355 16.6452ZM12.1355 14.8452C11.3855 14.8452 10.748 14.5827 10.223 14.0577C9.698 13.5327 9.4355 12.8952 9.4355 12.1452C9.4355 11.3952 9.698 10.7577 10.223 10.2327C10.748 9.70767 11.3855 9.44517 12.1355 9.44517C12.8855 9.44517 13.523 9.70767 14.048 10.2327C14.573 10.7577 14.8355 11.3952 14.8355 12.1452C14.8355 12.8952 14.573 13.5327 14.048 14.0577C13.523 14.5827 12.8855 14.8452 12.1355 14.8452ZM12.1355 19.6452C9.70216 19.6452 7.4855 18.966 5.4855 17.6077C3.4855 16.2493 2.0355 14.4285 1.1355 12.1452C2.0355 9.86184 3.4855 8.04101 5.4855 6.68267C7.4855 5.32434 9.70216 4.64517 12.1355 4.64517C14.5688 4.64517 16.7855 5.32434 18.7855 6.68267C20.7855 8.04101 22.2355 9.86184 23.1355 12.1452C22.2355 14.4285 20.7855 16.2493 18.7855 17.6077C16.7855 18.966 14.5688 19.6452 12.1355 19.6452ZM12.1355 17.6452C14.0188 17.6452 15.748 17.1493 17.323 16.1577C18.898 15.166 20.1022 13.8285 20.9355 12.1452C20.1022 10.4618 18.898 9.12434 17.323 8.13267C15.748 7.14101 14.0188 6.64517 12.1355 6.64517C10.2522 6.64517 8.523 7.14101 6.948 8.13267C5.373 9.12434 4.16883 10.4618 3.3355 12.1452C4.16883 13.8285 5.373 15.166 6.948 16.1577C8.523 17.1493 10.2522 17.6452 12.1355 17.6452Z" fill="url(#paint0_linear_27_186)"/>
<defs>
<linearGradient id="paint0_linear_27_186" x1="12.1355" y1="4.64517" x2="12.1355" y2="19.6452" gradientUnits="userSpaceOnUse">
<stop stop-color="#3864FF"/>
<stop offset="1" stop-color="#0038FF"/>
</linearGradient>
</defs>
</svg>
